<svg width="55" height="55" viewBox="0 0 55 55" fill="none" xmlns="http://www.w3.org/2000/svg">
<path d="M38.9583 6.87504C39.5602 6.27315 40.2748 5.7957 41.0612 5.46996C41.8476 5.14422 42.6905 4.97656 43.5417 4.97656C44.3929 4.97656 45.2357 5.14422 46.0222 5.46996C46.8086 5.7957 47.5231 6.27315 48.125 6.87504C48.7269 7.47693 49.2044 8.19148 49.5301 8.97789C49.8558 9.7643 50.0235 10.6072 50.0235 11.4584C50.0235 12.3096 49.8558 13.1524 49.5301 13.9389C49.2044 14.7253 48.7269 15.4398 48.125 16.0417L17.1875 46.9792L4.58334 50.4167L8.02084 37.8125L38.9583 6.87504Z" stroke="white" stroke-width="2" stroke-linecap="round" stroke-linejoin="round"/>
</svg>
